<?xml version="1.0" encoding="UTF-8" standalone="no"?>
<svg width="34px" height="23px" viewBox="0 0 34 23" version="1.1" xmlns="http://www.w3.org/2000/svg" xmlns:xlink="http://www.w3.org/1999/xlink">
    <!-- Generator: sketchtool 40.1 (33804) - http://www.bohemiancoding.com/sketch -->
    <title>CA7B54BA-3200-49FE-A612-0AA3D0742AE4</title>
    <desc>Created with sketchtool.</desc>
    <defs></defs>
    <g id="Page-1" stroke="none" stroke-width="1" fill="none" fill-rule="evenodd">
        <g id="Stylesheet" transform="translate(-149.000000, -830.000000)">
            <g id="credit-cards" transform="translate(65.000000, 830.000000)">
                <g id="amex" transform="translate(84.146086, 0.000000)">
                    <rect id="amex-bg" fill="#007ECD" x="0" y="0" width="33.6584345" height="23" rx="3"></rect>
                    <path d="M29.5668322,15.629673 L28.0892099,15.629673 L28.0892099,14.9177782 L29.3788168,14.9177782 C29.3788168,14.9177782 29.8490345,14.9700793 29.8490345,14.672929 C29.8490345,14.3944339 29.1460358,14.4160872 29.1460358,14.4160872 C29.1460358,14.4160872 28.000395,14.5103625 28.000395,13.495321 C28.000395,12.4856096 29.0353753,12.5432408 29.0353753,12.5432408 L30.6247324,12.5432408 L30.6247324,13.2651294 L29.3455112,13.2651294 C29.3455112,13.2651294 28.902511,13.180848 28.902511,13.4853272 C28.902511,13.7405033 29.5059511,13.7041923 29.5059511,13.7041923 C29.5059511,13.7041923 30.7733542,13.6155803 30.7733542,14.5466734 C30.7733542,15.5447254 29.95683,15.6336706 29.6671071,15.6336706 C29.6047935,15.6336706 29.5668322,15.629673 29.5668322,15.629673 L29.5668322,15.629673 Z M22.1948364,15.6346699 L22.1948364,12.5485708 L24.7844357,12.5485708 L24.7844357,13.2651294 L23.0299831,13.2651294 L23.0299831,13.7405033 L24.7407445,13.7405033 L24.7407445,14.4420712 L23.0299831,14.4420712 L23.0299831,14.9657486 L24.7844357,14.9657486 L24.7844357,15.6346699 L22.1948364,15.6346699 Z M26.6391633,15.629673 L25.1611828,15.629673 L25.1611828,14.9177782 L26.4565197,14.9177782 C26.4565197,14.9177782 26.9213655,14.9700793 26.9213655,14.672929 C26.9213655,14.3944339 26.2183668,14.4160872 26.2183668,14.4160872 C26.2183668,14.4160872 25.072726,14.5103625 25.072726,13.495321 C25.072726,12.4856096 26.1077063,12.5432408 26.1077063,12.5432408 L27.7024353,12.5432408 L27.7024353,13.2651294 L26.4182003,13.2651294 C26.4182003,13.2651294 25.974842,13.180848 25.974842,13.4853272 C25.974842,13.7405033 26.5775658,13.7041923 26.5775658,13.7041923 C26.5775658,13.7041923 27.8456852,13.6155803 27.8456852,14.5466734 C27.8456852,15.5447254 27.029161,15.6336706 26.7394382,15.6336706 C26.6767663,15.6336706 26.6391633,15.629673 26.6391633,15.629673 L26.6391633,15.629673 Z M15.442038,15.6350031 L14.7171938,15.6350031 L13.8369234,14.7189007 L12.9516392,15.6350031 L12.4477579,15.6350031 L9.86317229,15.6350031 L9.86317229,12.5382438 L12.4477579,12.5382438 L12.8850281,12.5382438 L13.8369234,13.5216381 L14.7945487,12.5435739 L15.4312943,12.5435739 L15.4312943,12.5382438 L17.4457454,12.5382438 C17.4457454,12.5382438 18.4975575,12.4283115 18.4975575,13.4476837 C18.4975575,14.3581229 18.1480279,14.6409487 17.0750864,14.6409487 L16.2614272,14.6409487 L16.2614272,15.6350031 L15.442038,15.6350031 L15.442038,15.6350031 Z M14.4016859,14.1132737 L15.4312943,15.190277 L15.4312943,13.040268 L14.4016859,14.1132737 L14.4016859,14.1132737 Z M10.6990352,14.9654155 L12.4477579,14.9654155 L13.2671471,14.1132737 L12.4477579,13.2654626 L10.6990352,13.2654626 L10.6990352,13.7408364 L12.4037085,13.7408364 L12.4037085,14.4424043 L10.6990352,14.4424043 L10.6990352,14.9654155 L10.6990352,14.9654155 Z M16.2614272,13.8347786 L17.1191358,13.8347786 C17.3683905,13.8347786 17.5732378,13.7041923 17.5732378,13.5419589 C17.5732378,13.3803918 17.3683905,13.2491393 17.1191358,13.2491393 L16.2614272,13.2491393 L16.2614272,13.8347786 L16.2614272,13.8347786 Z M20.9772126,15.64 L20.9772126,15.0383706 C20.9772126,15.0383706 20.9431907,14.5676605 20.4228356,14.5676605 L19.6156227,14.5676605 L19.6156227,15.64 L18.7847735,15.64 L18.7847735,12.5485708 L20.7999409,12.5485708 C20.7999409,12.5485708 21.8513948,12.4283115 21.8513948,13.4533469 C21.8513948,13.9870181 21.3865491,14.1752355 21.3865491,14.1752355 C21.3865491,14.1752355 21.7851418,14.353126 21.7851418,14.875804 L21.7851418,15.64 L20.9772126,15.64 L20.9772126,15.64 Z M19.6156227,13.8404418 L20.4733312,13.8404418 C20.722586,13.8404418 20.9270751,13.7098555 20.9270751,13.5476221 C20.9270751,13.3853887 20.722586,13.2548025 20.4733312,13.2548025 L19.6156227,13.2548025 L19.6156227,13.8404418 L19.6156227,13.8404418 Z M18.9899789,11.4082732 L19.8251256,11.4082732 L19.8251256,8.30685013 L18.9899789,8.30685013 L18.9899789,11.4082732 Z M12.5584184,11.3976131 L12.5584184,8.306517 L15.148734,8.306517 L15.148734,9.02807256 L13.3942813,9.02807256 L13.3942813,9.50411268 L15.1046846,9.50411268 L15.1046846,10.2050143 L13.3942813,10.2050143 L13.3942813,10.7286917 L15.148734,10.7286917 L15.148734,11.3976131 L12.5584184,11.3976131 Z M11.2577097,11.3979462 L11.2577097,9.26359416 L10.2173576,11.3979462 L9.53656261,11.3979462 L8.49048052,9.27392114 L8.49048052,11.3979462 L7.76527811,11.3979462 L7.6546176,11.3979462 L6.85206026,11.3979462 L6.56412805,10.7493457 L5.04782829,10.7493457 L4.7545242,11.3979462 L3.84667823,11.3979462 L5.22474187,8.30618387 L6.39258634,8.30618387 L7.6546176,11.1467676 L7.6546176,8.30618387 L8.96642818,8.30618387 L9.87964603,10.2260014 L10.7871339,8.30618387 L12.0989445,8.30618387 L12.0989445,11.3979462 L11.2577097,11.3979462 Z M5.40201357,9.95916573 L6.20994277,9.95916573 L5.80597817,9.03873266 L5.40201357,9.95916573 Z M27.5684967,11.3979462 L26.2520305,9.3315523 L26.2520305,11.3979462 L25.53793,11.3979462 L25.4043495,11.3979462 L24.6247121,11.3979462 L24.331408,10.7493457 L22.8147501,10.7493457 L22.5264598,11.3979462 L21.7625799,11.3979462 L21.6243438,11.3979462 L21.2257511,11.3979462 C21.2257511,11.3979462 20.1084022,11.2460398 20.1084022,9.93851179 C20.1084022,8.22256871 21.3758053,8.29052685 21.4194965,8.28019988 L22.4433749,8.30618387 L22.4433749,9.00208857 L21.6028563,9.01241554 C21.6028563,9.01241554 21.0545675,9.01241554 20.9875982,9.68733316 C20.9804357,9.76528515 20.9764963,9.83590832 20.9772126,9.90220082 C20.9804357,10.9472238 21.9366285,10.6230901 21.9681435,10.6130963 L22.9973937,8.30618387 L24.1591501,8.30618387 L25.4043495,11.1101235 L25.4043495,8.30618387 L26.5779239,8.30618387 L27.8786327,10.3412637 L27.8786327,8.30618387 L28.7148537,8.30618387 L28.7148537,11.3979462 L27.5684967,11.3979462 L27.5684967,11.3979462 Z M23.1689354,9.95916573 L23.9772228,9.95916573 L23.57863,9.03873266 L23.1689354,9.95916573 L23.1689354,9.95916573 Z M17.771997,11.3979462 L17.771997,10.7963168 C17.771997,10.7963168 17.7390495,10.3256067 17.2186944,10.3256067 L16.4107652,10.3256067 L16.4107652,11.3979462 L15.5802742,11.3979462 L15.5802742,8.30618387 L17.5950834,8.30618387 C17.5950834,8.30618387 18.6465374,8.18592461 18.6465374,9.21129304 C18.6465374,9.74496433 18.1816916,9.93318174 18.1816916,9.93318174 C18.1816916,9.93318174 18.5856562,10.1110722 18.5856562,10.6340834 L18.5856562,11.3979462 L17.771997,11.3979462 Z M16.4107652,9.59838795 L17.2684737,9.59838795 C17.5177285,9.59838795 17.7222177,9.46746859 17.7222177,9.30523518 C17.7222177,9.1433349 17.5177285,9.01241554 17.2684737,9.01241554 L16.4107652,9.01241554 L16.4107652,9.59838795 Z" id="amex-logo" fill="#FFFFFF"></path>
                </g>
            </g>
        </g>
    </g>
</svg>