<?xml version="1.0" encoding="UTF-8" standalone="no"?>
<svg width="20px" height="20px" viewBox="0 0 20 20" version="1.1" xmlns="http://www.w3.org/2000/svg" xmlns:xlink="http://www.w3.org/1999/xlink">
    <!-- Generator: sketchtool 40.1 (33804) - http://www.bohemiancoding.com/sketch -->
    <title>0EB40CB9-FD19-4201-83CE-5449FCDE32A3</title>
    <desc>Created with sketchtool.</desc>
    <defs></defs>
    <g id="Page-1" stroke="none" stroke-width="1" fill="none" fill-rule="evenodd" stroke-linecap="round" stroke-linejoin="round">
        <g id="Settings" transform="translate(-339.000000, -471.000000)" stroke="#99A1A3">
            <g id="caller_id_auth_icon" transform="translate(340.000000, 472.000000)">
                <path d="M15.375,0.375 L8.0355,7.71525 C7.31325,7.34025 6.49425,7.125 5.625,7.125 C2.7255,7.125 0.375,9.4755 0.375,12.375 C0.375,15.27525 2.7255,17.625 5.625,17.625 C8.52375,17.625 10.875,15.27525 10.875,12.375 C10.875,11.505 10.65975,10.68675 10.2855,9.96525 L12.75,7.5 L13.875,7.5 L13.875,6.375 L14.25,6 L15.375,6 L15.375,4.875 L15.75,4.5 L16.875,4.5 L16.875,3.375 L17.625,2.625 L17.625,0.375 L15.375,0.375 L15.375,0.375 Z" id="Stroke-231"></path>
                <path d="M6,13.5 C6,14.329 5.328,15 4.5,15 C3.672,15 3,14.329 3,13.5 C3,12.672 3.672,12 4.5,12 C5.328,12 6,12.672 6,13.5 L6,13.5 Z" id="Stroke-232"></path>
            </g>
        </g>
    </g>
</svg>