<?xml version="1.0" encoding="UTF-8" standalone="no"?>
<svg width="34px" height="23px" viewBox="0 0 34 23" version="1.1" xmlns="http://www.w3.org/2000/svg" xmlns:xlink="http://www.w3.org/1999/xlink">
    <!-- Generator: sketchtool 40.1 (33804) - http://www.bohemiancoding.com/sketch -->
    <title>7B59819F-58DF-403C-A7EB-E89194715589</title>
    <desc>Created with sketchtool.</desc>
    <defs></defs>
    <g id="Page-1" stroke="none" stroke-width="1" fill="none" fill-rule="evenodd">
        <g id="Stylesheet" transform="translate(-107.000000, -830.000000)">
            <g id="credit-cards" transform="translate(65.000000, 830.000000)">
                <g id="diners-club" transform="translate(42.000000, 0.000000)">
                    <rect id="dc-bg" fill="#2183CB" x="0" y="0" width="33.6584345" height="23" rx="3"></rect>
                    <path d="M18.0526291,18.1945168 L15.589541,18.1945168 C11.8648712,18.1363093 8.86110526,15.1677277 8.86110526,11.5588638 C8.74095462,7.94999991 11.62457,4.92321082 15.2891644,4.80679585 L18.0526291,4.80679585 C21.8974496,4.74858837 25.0213662,7.77537746 25.0814415,11.5006563 L25.0814415,11.5588638 C24.9612909,15.2259352 21.8974496,18.1945168 18.0526291,18.1945168 Z M15.769767,5.9709455 C12.6458504,5.9709455 10.0626116,8.47386725 10.0626116,11.5006563 C10.0626116,14.5274454 12.6458504,17.0303672 15.769767,17.0303672 C18.8936836,17.0303672 21.4769224,14.5274454 21.4769224,11.5006563 C21.4769224,8.47386725 18.8936836,5.9709455 15.769767,5.9709455 Z M16.6708968,15.2259352 L16.6708968,7.83358494 C18.773533,8.35745228 20.09519,10.3947142 19.5545121,12.4319761 C19.1940602,13.8289556 18.1127045,14.8766903 16.6708968,15.2259352 L16.6708968,15.2259352 Z M14.8686372,15.2259352 C12.766001,14.7020679 11.5044193,12.6065985 12.0450972,10.5693366 C12.4055491,9.23056452 13.4869049,8.18282984 14.8686372,7.83358494 L14.8686372,15.2259352 Z" id="dc-logo" fill="#FFFFFF"></path>
                </g>
            </g>
        </g>
    </g>
</svg>