<?xml version="1.0" encoding="UTF-8" standalone="no"?>
<svg width="34px" height="23px" viewBox="0 0 34 23" version="1.1" xmlns="http://www.w3.org/2000/svg" xmlns:xlink="http://www.w3.org/1999/xlink">
    <!-- Generator: sketchtool 40.1 (33804) - http://www.bohemiancoding.com/sketch -->
    <title>DB959CDC-06D0-45B9-8728-F133ED199249</title>
    <desc>Created with sketchtool.</desc>
    <defs></defs>
    <g id="Page-1" stroke="none" stroke-width="1" fill="none" fill-rule="evenodd">
        <g id="Stylesheet" transform="translate(-191.000000, -830.000000)">
            <g id="credit-cards" transform="translate(65.000000, 830.000000)">
                <g id="discover" transform="translate(126.219129, 0.000000)">
                    <rect id="discover-bg" fill="#FFA200" x="0" y="0" width="33.6584345" height="23" rx="3"></rect>
                    <path d="M28.7373932,11.333678 L28.4829241,11.333678 L28.4829241,10.0389387 L28.7373932,10.0389387 C29.2972253,10.0389387 29.5516944,10.2787052 29.5516944,10.6623317 C29.5516944,11.0939114 29.2972253,11.333678 28.7373932,11.333678 L28.7373932,11.333678 Z M30.4677832,10.6143784 C30.4677832,9.79917215 29.9079512,9.36759239 28.8900747,9.36759239 L27.6177291,9.36759239 L27.6177291,13.6354367 L28.4829241,13.6354367 L28.4829241,11.9091176 L28.5847118,11.9091176 L29.7552697,13.6354367 L30.82404,13.6354367 L29.4499068,11.8611643 C30.0606326,11.7652577 30.518677,11.2377713 30.4677832,10.6143784 L30.4677832,10.6143784 Z M24.6149935,13.6354367 L27.057897,13.6354367 L27.057897,12.9161371 L25.4801885,12.9161371 L25.4801885,11.7652577 L27.0070032,11.7652577 L27.0070032,11.0459581 L25.4801885,11.0459581 L25.4801885,10.086892 L27.057897,10.086892 L27.057897,9.36759239 L24.6149935,9.36759239 L24.6149935,13.6354367 L24.6149935,13.6354367 Z M22.0703023,12.2447908 L20.8997444,9.36759239 L19.9836556,9.36759239 L21.866727,13.7313433 L22.3247715,13.7313433 L24.2078429,9.36759239 L23.2917541,9.36759239 L22.0703023,12.2447908 L22.0703023,12.2447908 Z M11.7388562,11.5254912 C11.7388562,12.7243238 12.7567326,13.7313433 14.0290782,13.7313433 C14.4362288,13.7313433 14.7924856,13.6354367 15.1487423,13.4915768 L15.1487423,12.5325106 C14.8942732,12.8202305 14.5380164,13.0120437 14.1308659,13.0120437 C13.3165647,13.0120437 12.654945,12.436604 12.654945,11.6693511 L12.654945,11.5734445 C12.6040512,10.8061916 13.2656709,10.1348453 14.079972,10.086892 C14.4871226,10.086892 14.8942732,10.2787052 15.1487423,10.5664251 L15.1487423,9.60735892 C14.8433794,9.41554569 14.4362288,9.36759239 14.079972,9.36759239 C12.7567326,9.27168577 11.7388562,10.2787052 11.7388562,11.5254912 L11.7388562,11.5254912 Z M10.1611476,10.9980048 C9.65220938,10.8061916 9.49952791,10.710285 9.49952791,10.4705184 C9.55042174,10.1827986 9.80489086,9.94303207 10.1102538,9.99098537 C10.3647229,9.99098537 10.619192,10.1348453 10.8227673,10.3266585 L11.2808117,9.75121884 C10.924555,9.463499 10.4665106,9.27168577 10.0084661,9.27168577 C9.29595262,9.22373247 8.68522674,9.75121884 8.63433291,10.4225651 L8.63433291,10.4705184 C8.63433291,11.0459581 8.88880203,11.3816313 9.70310321,11.6213978 C9.9066785,11.6693511 10.1102538,11.7652577 10.3138291,11.8611643 C10.4665106,11.9570709 10.5682982,12.1009309 10.5682982,12.2927441 C10.5682982,12.6284172 10.2629353,12.9161371 9.95757233,12.9161371 L9.9066785,12.9161371 C9.49952791,12.9161371 9.14327115,12.6763705 8.99058968,12.3406974 L8.43075762,12.8681838 C8.73612056,13.3956701 9.34684644,13.68339 9.95757233,13.68339 C10.7718735,13.7313433 11.4334932,13.1559036 11.484387,12.3886507 L11.484387,12.2447908 C11.4334932,11.6693511 11.1790241,11.3816313 10.1611476,10.9980048 L10.1611476,10.9980048 Z M7.20930585,13.6354367 L8.07450085,13.6354367 L8.07450085,9.36759239 L7.20930585,9.36759239 L7.20930585,13.6354367 L7.20930585,13.6354367 Z M5.47891585,12.5804639 C5.17355291,12.8202305 4.7155085,12.9640904 4.30835791,12.9161371 L4.05388879,12.9161371 L4.05388879,10.086892 L4.30835791,10.086892 C4.7155085,10.0389387 5.17355291,10.1827986 5.47891585,10.4225651 C5.78427879,10.710285 5.93696026,11.0939114 5.93696026,11.4775379 C5.93696026,11.9091176 5.78427879,12.2927441 5.47891585,12.5804639 L5.47891585,12.5804639 Z M4.46103938,9.36759239 L3.18869379,9.36759239 L3.18869379,13.6354367 L4.46103938,13.6354367 C5.02087144,13.68339 5.5807035,13.4915768 6.03874791,13.1559036 C6.54768615,12.7243238 6.85304909,12.1488842 6.85304909,11.5254912 C6.90394291,10.3746118 5.93696026,9.41554569 4.7155085,9.36759239 L4.46103938,9.36759239 L4.46103938,9.36759239 Z M17.7443273,9.26865672 C16.4719817,9.26865672 15.4032114,10.2277228 15.4032114,11.4745088 C15.4032114,12.6733415 16.4210879,13.6803609 17.7443273,13.7283142 C19.0675667,13.7762675 20.0854432,12.7692481 20.136337,11.5224621 C20.0854432,10.2756762 19.0675667,9.26865672 17.7443273,9.26865672 L17.7443273,9.26865672 Z" id="discover-logo" fill="#FFFFFF"></path>
                </g>
            </g>
        </g>
    </g>
</svg>