<?xml version="1.0" encoding="UTF-8" standalone="no"?>
<svg width="18px" height="18px" viewBox="0 0 18 18" version="1.1" xmlns="http://www.w3.org/2000/svg" xmlns:xlink="http://www.w3.org/1999/xlink">
    <!-- Generator: sketchtool 40.1 (33804) - http://www.bohemiancoding.com/sketch -->
    <title>0549F143-6E84-43B1-90F8-79BC1B5AE0E8</title>
    <desc>Created with sketchtool.</desc>
    <defs></defs>
    <g id="Page-1" stroke="none" stroke-width="1" fill="none" fill-rule="evenodd">
        <g id="Settings" transform="translate(-344.000000, -632.000000)" stroke="#99A1A3">
            <g id="Forward-icon" transform="translate(345.000000, 632.000000)">
                <path d="M9.7576104,13.1901429 C9.7576104,13.1901429 8.66089611,13.2364286 6.25789611,10.9118571 C3.85618183,8.58857143 3.90503897,7.52657143 3.90503897,7.52657143 L5.65875325,5.82942857 C5.3656104,4.10785714 4.33703897,1.38728571 2.3236104,2.016 C0.339753255,2.62028571 -0.393103888,5.32671429 0.199610398,7.00585714 C3.12846754,15.0081429 10.0828961,16.6255714 11.1487533,16.7027143 C13.7047533,16.9637143 15.3478961,15.4144286 15.6693247,13.0692857 C15.6693247,13.0692857 13.085039,11.4788571 11.7954675,11.2178571 L9.7576104,13.1901429 L9.7576104,13.1901429 Z" id="Incoming-Call-Icon"></path>
                <path d="M9.67855593,7.24606452 L16.2975586,0.812112455" id="Stroke-424" stroke-linecap="round" stroke-linejoin="round"></path>
                <polyline id="Stroke-425" stroke-linecap="round" stroke-linejoin="round" points="14.0512473 7.24606452 9.67863231 7.24606452 9.67863231 2.99544934"></polyline>
            </g>
        </g>
    </g>
</svg>