<?xml version="1.0" encoding="UTF-8" standalone="no"?>
<svg width="34px" height="23px" viewBox="0 0 34 23" version="1.1" xmlns="http://www.w3.org/2000/svg" xmlns:xlink="http://www.w3.org/1999/xlink">
    <!-- Generator: sketchtool 40.1 (33804) - http://www.bohemiancoding.com/sketch -->
    <title>CCFE1F4D-4A98-468B-8ED4-E3C0FCF97E02</title>
    <desc>Created with sketchtool.</desc>
    <defs></defs>
    <g id="Page-1" stroke="none" stroke-width="1" fill="none" fill-rule="evenodd">
        <g id="Stylesheet" transform="translate(-233.000000, -830.000000)">
            <g id="credit-cards" transform="translate(65.000000, 830.000000)">
                <g id="mastercard" transform="translate(168.216806, 0.000000)">
                    <rect id="mastercard-bg" fill="#353A48" x="0" y="0" width="33.6584345" height="23" rx="3"></rect>
                    <g id="mastercard-logo" transform="translate(6.023088, 5.149254)">
                        <path d="M10.9832786,11.3011875 C9.83872023,12.2472046 8.35403641,12.8182956 6.73168689,12.8182956 C3.11171593,12.8182956 0.177149655,9.97496965 0.177149655,6.46754933 C0.177149655,2.96012902 3.11171593,0.116803066 6.73168689,0.116803066 C8.35403641,0.116803066 9.83872023,0.687894078 10.9832786,1.63391116 C12.127837,0.687894078 13.6125208,0.116803066 15.2348703,0.116803066 C18.8548413,0.116803066 21.7894076,2.96012902 21.7894076,6.46754933 C21.7894076,9.97496965 18.8548413,12.8182956 15.2348703,12.8182956 C13.6125208,12.8182956 12.127837,12.2472046 10.9832786,11.3011875 Z" id="Combined-Shape" fill="#FF5E00"></path>
                        <path d="M10.9832786,11.3011875 C9.83872023,12.2472046 8.35403641,12.8182956 6.73168689,12.8182956 C3.11171593,12.8182956 0.177149655,9.97496965 0.177149655,6.46754933 C0.177149655,2.96012902 3.11171593,0.116803066 6.73168689,0.116803066 C8.35403641,0.116803066 9.83872023,0.687894078 10.9832786,1.63391116 C9.57396802,2.79875509 8.6803331,4.53203712 8.6803331,6.46754933 C8.6803331,8.40306155 9.57396802,10.1363436 10.9832786,11.3011875 Z" id="Combined-Shape" fill="#ED0006"></path>
                        <path d="M10.9832786,1.63391116 C12.127837,0.687894078 13.6125208,0.116803066 15.2348703,0.116803066 C18.8548413,0.116803066 21.7894076,2.96012902 21.7894076,6.46754933 C21.7894076,9.97496965 18.8548413,12.8182956 15.2348703,12.8182956 C13.6125208,12.8182956 12.127837,12.2472046 10.9832786,11.3011875 C12.3925892,10.1363436 13.2862241,8.40306155 13.2862241,6.46754933 C13.2862241,4.53203712 12.3925892,2.79875509 10.9832786,1.63391116 Z" id="Combined-Shape" fill="#F9A000"></path>
                    </g>
                </g>
            </g>
        </g>
    </g>
</svg>