<?xml version="1.0" encoding="UTF-8" standalone="no"?>
<svg width="20px" height="20px" viewBox="0 0 20 20" version="1.1" xmlns="http://www.w3.org/2000/svg" xmlns:xlink="http://www.w3.org/1999/xlink">
    <!-- Generator: sketchtool 40.1 (33804) - http://www.bohemiancoding.com/sketch -->
    <title>EC7F5BBA-3981-449C-B8F3-822AADBE115A</title>
    <desc>Created with sketchtool.</desc>
    <defs></defs>
    <g id="Page-1" stroke="none" stroke-width="1" fill="none" fill-rule="evenodd" stroke-linecap="round" stroke-linejoin="round">
        <g id="Settings" transform="translate(-339.000000, -313.000000)" stroke="#99A1A3">
            <g id="settings_icon" transform="translate(340.000000, 314.000000)">
                <path d="M15.190425,10.125 L17.624925,10.125 L17.624925,7.875 L15.189675,7.875 C15.032925,7.22475 14.776425,6.23925 14.437425,5.6835 L16.159425,3.96225 L14.037675,1.8405 L12.314925,3.5625 C11.759925,3.2235 10.775175,2.96775 10.124925,2.811 L10.124925,0.375 L7.874925,0.375 L7.874925,2.811 C7.224675,2.96775 6.239175,3.2235 5.684175,3.5625 L3.961425,1.8405 L1.839675,3.96225 L3.562425,5.68425 C3.223425,6.23925 2.966925,7.22475 2.809425,7.875 L0.374925,7.875 L0.374925,10.125 L2.809425,10.125 C2.966925,10.77525 3.223425,11.76075 3.562425,12.31575 L1.839675,14.0385 L3.961425,16.1595 L5.683425,14.43675 C6.239175,14.7765 7.224675,15.033 7.874925,15.1905 L7.874925,17.625 L10.124925,17.625 L10.124925,15.1905 C10.775175,15.033 11.760675,14.7765 12.314925,14.4375 L14.038425,16.1595 L16.159425,14.0385 L14.437425,12.31575 C14.776425,11.76075 15.032925,10.77525 15.190425,10.125 L15.190425,10.125 Z" id="Stroke-814"></path>
                <path d="M12.375,9 C12.375,10.8645 10.86375,12.375 9,12.375 C7.13625,12.375 5.625,10.8645 5.625,9 C5.625,7.13625 7.13625,5.625 9,5.625 C10.86375,5.625 12.375,7.13625 12.375,9 L12.375,9 Z" id="Stroke-815"></path>
            </g>
        </g>
    </g>
</svg>