<?xml version="1.0" encoding="UTF-8" standalone="no"?>
<svg width="34px" height="23px" viewBox="0 0 34 23" version="1.1" xmlns="http://www.w3.org/2000/svg" xmlns:xlink="http://www.w3.org/1999/xlink">
    <!-- Generator: sketchtool 40.1 (33804) - http://www.bohemiancoding.com/sketch -->
    <title>ED7AA448-E880-4983-A99E-FD3CA1D18C23</title>
    <desc>Created with sketchtool.</desc>
    <defs></defs>
    <g id="Page-1" stroke="none" stroke-width="1" fill="none" fill-rule="evenodd">
        <g id="Stylesheet" transform="translate(-65.000000, -830.000000)">
            <g id="credit-cards" transform="translate(65.000000, 830.000000)">
                <g id="visa">
                    <rect id="visa-bg" fill="#224DBA" x="0" y="0" width="33.6584345" height="23" rx="3"></rect>
                    <path d="M11.4679095,15.34008 L9.4955252,15.34008 L8.01647742,9.82008 C7.94627554,9.56616 7.79721676,9.34168 7.5779561,9.23588 C7.03076613,8.97 6.42779931,8.7584 5.77001734,8.65168 L5.77001734,8.43916 L8.94737355,8.43916 C9.38589487,8.43916 9.71478586,8.7584 9.76960102,9.12916 L10.5370133,13.11092 L12.5084359,8.43916 L14.426005,8.43916 L11.4679095,15.34008 Z M15.5223083,15.34008 L13.6595544,15.34008 L15.1934173,8.43916 L17.0561713,8.43916 L15.5223083,15.34008 Z M19.4661152,10.35092 C19.5209303,9.97924 19.8498213,9.76672 20.2335275,9.76672 C20.8364943,9.71336 21.4933146,9.82008 22.0414662,10.08504 L22.3703572,8.59924 C21.8222056,8.38672 21.2192388,8.28 20.6720488,8.28 C18.86411,8.28 17.5485461,9.23588 17.5485461,10.56252 C17.5485461,11.57176 18.4804039,12.10168 19.1381858,12.42092 C19.8498213,12.73924 20.1238971,12.95176 20.069082,13.27008 C20.069082,13.74756 19.5209303,13.96008 18.9737403,13.96008 C18.3159584,13.96008 17.6581764,13.80092 17.0561713,13.53504 L16.7272803,15.02176 C17.3850622,15.28672 18.0966977,15.39344 18.7544797,15.39344 C20.7816791,15.44588 22.0414662,14.49092 22.0414662,13.05756 C22.0414662,11.25252 19.4661152,11.14672 19.4661152,10.35092 L19.4661152,10.35092 Z M28.5606242,15.34008 L27.0815764,8.43916 L25.4928983,8.43916 C25.1640073,8.43916 24.8351163,8.65168 24.725486,8.97 L21.9866511,15.34008 L23.9042202,15.34008 L24.2869646,14.33176 L26.6430551,14.33176 L26.8623157,15.34008 L28.5606242,15.34008 Z M25.7669741,10.29756 L26.3141641,12.8984 L24.7803011,12.8984 L25.7669741,10.29756 Z" id="visa-logo" fill="#FFFFFF"></path>
                </g>
            </g>
        </g>
    </g>
</svg>